<svg xmlns="http://www.w3.org/2000/svg" width="256" height="256" viewBox="0 0 100 100"><path fill="#2090dd" d="M11.48 76.91L11.48 76.91Q10.67 77.09 9.19 77.36Q7.70 77.63 5.99 77.63L5.99 77.63Q2.57 77.63 1.18 76.37Q-0.22 75.11-0.22 72.14L-0.22 72.14L-0.22 22.37Q0.50 22.19 2.08 21.92Q3.65 21.65 5.18 21.65L5.18 21.65Q8.42 21.65 9.95 22.82Q11.48 23.99 11.48 27.14L11.48 27.14L11.48 44.87L33.98 44.87L33.98 22.37Q34.70 22.19 36.27 21.92Q37.85 21.65 39.38 21.65L39.38 21.65Q42.62 21.65 44.15 22.87Q45.68 24.08 45.68 27.23L45.68 27.23L45.68 76.91Q44.87 77.09 43.38 77.36Q41.90 77.63 40.19 77.63L40.19 77.63Q36.77 77.63 35.38 76.37Q33.98 75.11 33.98 72.14L33.98 72.14L33.98 54.23L11.48 54.23L11.48 76.91ZM100.22 55.67L100.22 55.67Q100.22 60.89 98.64 65.08Q97.07 69.26 94.19 72.23Q91.31 75.20 87.26 76.78Q83.21 78.35 78.17 78.35L78.17 78.35Q73.13 78.35 69.08 76.78Q65.03 75.20 62.15 72.28Q59.27 69.35 57.69 65.17Q56.12 60.98 56.12 55.67L56.12 55.67Q56.12 50.45 57.69 46.27Q59.27 42.08 62.19 39.16Q65.12 36.23 69.17 34.66Q73.22 33.08 78.17 33.08L78.17 33.08Q83.12 33.08 87.17 34.66Q91.22 36.23 94.14 39.20Q97.07 42.17 98.64 46.36Q100.22 50.54 100.22 55.67ZM78.17 42.08L78.17 42.08Q73.31 42.08 70.52 45.64Q67.73 49.19 67.73 55.67L67.73 55.67Q67.73 62.24 70.47 65.75Q73.22 69.26 78.17 69.26L78.17 69.26Q83.12 69.26 85.86 65.70Q88.61 62.15 88.61 55.67L88.61 55.67Q88.61 49.19 85.82 45.64Q83.03 42.08 78.17 42.08Z"></path></svg>